<?xml version="1.0" encoding="UTF-8" standalone="no"?>
<!-- Created with Inkscape (http://www.inkscape.org/) -->

<svg
   xmlns:dc="http://purl.org/dc/elements/1.1/"
   xmlns:cc="http://creativecommons.org/ns#"
   xmlns:rdf="http://www.w3.org/1999/02/22-rdf-syntax-ns#"
   xmlns:svg="http://www.w3.org/2000/svg"
   xmlns="http://www.w3.org/2000/svg"
   xmlns:sodipodi="http://sodipodi.sourceforge.net/DTD/sodipodi-0.dtd"
   xmlns:inkscape="http://www.inkscape.org/namespaces/inkscape"
   width="64px"
   height="64px"
   id="svg2985"
   version="1.1"
   inkscape:version="0.48.5 r10040"
   inkscape:export-filename="/home/mattia/beratfiles/programmazione di interfaccia/poeditorNew/icons/registro2.png"
   inkscape:export-xdpi="90"
   inkscape:export-ydpi="90"
   sodipodi:docname="alu.svg">
  <defs
     id="defs2987">
    <inkscape:perspective
       sodipodi:type="inkscape:persp3d"
       inkscape:vp_x="0 : 32 : 1"
       inkscape:vp_y="0 : 1000 : 0"
       inkscape:vp_z="64 : 32 : 1"
       inkscape:persp3d-origin="32 : 21.333333 : 1"
       id="perspective3003" />
  </defs>
  <sodipodi:namedview
     id="base"
     pagecolor="#ffffff"
     bordercolor="#666666"
     borderopacity="1.0"
     inkscape:pageopacity="0.0"
     inkscape:pageshadow="2"
     inkscape:zoom="5.5"
     inkscape:cx="31.394697"
     inkscape:cy="32"
     inkscape:current-layer="layer1"
     showgrid="true"
     inkscape:document-units="px"
     inkscape:grid-bbox="true"
     inkscape:window-width="867"
     inkscape:window-height="548"
     inkscape:window-x="30"
     inkscape:window-y="104"
     inkscape:window-maximized="0"
     showguides="true"
     inkscape:guide-bbox="true" />
  <metadata
     id="metadata2990">
    <rdf:RDF>
      <cc:Work
         rdf:about="">
        <dc:format>image/svg+xml</dc:format>
        <dc:type
           rdf:resource="http://purl.org/dc/dcmitype/StillImage" />
        <dc:title></dc:title>
      </cc:Work>
    </rdf:RDF>
  </metadata>
  <g
     id="layer1"
     inkscape:label="Layer 1"
     inkscape:groupmode="layer"
     style="display:inline">
    <path
       style="fill:none;stroke:#000000;stroke-width:1.35335982px;stroke-linecap:butt;stroke-linejoin:miter;stroke-opacity:1"
       d="m 7.3011302,19.90909 c 6.5143858,0 13.0287708,0 19.5431578,0"
       id="path3035"
       inkscape:connector-curvature="0" />
    <path
       style="fill:none;stroke:#000000;stroke-width:1.35335982px;stroke-linecap:butt;stroke-linejoin:miter;stroke-opacity:1"
       d="m 36.316208,19.909092 c 6.514387,0 13.028772,0 19.543159,0"
       id="path3035-0"
       inkscape:connector-curvature="0" />
    <path
       style="fill:none;stroke:#000000;stroke-width:1.12792289px;stroke-linecap:butt;stroke-linejoin:miter;stroke-opacity:1"
       d="m 15.572666,45.727273 c 11.018899,0 22.037796,0 33.056697,0"
       id="path3035-01"
       inkscape:connector-curvature="0" />
    <path
       style="fill:none;stroke:#000000;stroke-width:1.19310164px;stroke-linecap:butt;stroke-linejoin:miter;stroke-opacity:1"
       d="M 7.369278,19.551096 16.107002,45.93713"
       id="path3101"
       inkscape:connector-curvature="0" />
    <path
       style="fill:none;stroke:#000000;stroke-width:1.11922216px;stroke-linecap:butt;stroke-linejoin:miter;stroke-opacity:1"
       d="M 48.230561,45.775412 55.951256,19.497316"
       id="path3101-3"
       inkscape:connector-curvature="0" />
    <path
       style="fill:none;stroke:#000000;stroke-width:1.14680779px;stroke-linecap:butt;stroke-linejoin:miter;stroke-opacity:1"
       d="m 26.599947,19.690856 4.88274,7.950165"
       id="path3121"
       inkscape:connector-curvature="0" />
    <path
       style="fill:none;stroke:#000000;stroke-width:1.16460478px;stroke-linecap:butt;stroke-linejoin:miter;stroke-opacity:1"
       d="m 31.567528,27.784365 5.046761,-7.932367"
       id="path3121-3"
       inkscape:connector-curvature="0" />
    <text
       xml:space="preserve"
       style="font-size:31.04270935px;font-style:normal;font-weight:normal;line-height:125%;letter-spacing:0px;word-spacing:0px;fill:#000000;fill-opacity:1;stroke:none;font-family:Sans"
       x="19.595362"
       y="40.542084"
       id="text3141"
       sodipodi:linespacing="125%"
       transform="scale(1.0857207,0.9210472)"><tspan
         sodipodi:role="line"
         id="tspan3143"
         x="19.595362"
         y="40.542084"
         style="font-size:11.64101601px;font-style:normal;font-variant:normal;font-weight:normal;font-stretch:normal;text-align:start;line-height:125%;writing-mode:lr-tb;text-anchor:start;font-family:Courier 10 Pitch;-inkscape-font-specification:Courier 10 Pitch">ALU</tspan></text>
    <path
       style="fill:#333333"
       d="M 15.627402,46.007457 C 15.293445,45.454863 7.0062953,19.857869 7.1460079,19.810488 c 0.098289,-0.03333 0.1787078,-0.176515 0.1787078,-0.318182 0,-0.218985 1.4448939,-0.257576 9.6439663,-0.257576 8.937752,0 9.668141,0.0233 9.974101,0.318182 0.181576,0.175 1.293336,1.896202 2.470578,3.824894 1.877946,3.076661 2.167666,3.466869 2.362426,3.181818 0.122089,-0.178691 1.142667,-1.777167 2.267951,-3.552167 1.125283,-1.775 2.119301,-3.227272 2.208929,-3.227272 0.08963,0 0.162958,-0.122728 0.162958,-0.272728 0,-0.238993 1.19192,-0.272727 9.636363,-0.272727 6.303031,0 9.636364,0.06289 9.636364,0.181818 0,0.1 0.122727,0.181819 0.272727,0.181819 0.15,0 0.272728,0.126066 0.272728,0.280148 0,0.246603 -6.666349,23.171159 -7.38668,25.40167 l -0.278908,0.863636 -16.429203,0 c -9.036062,0 -16.466288,-0.06136 -16.511614,-0.136364 l 0,0 z M 51.43873,33.23473 c 1.927137,-6.55 3.550695,-12.093932 3.607909,-12.31985 l 0.104024,-0.410759 -9.225247,0.04712 -9.225248,0.04712 -2.346696,3.685319 c -1.891142,2.969904 -2.394802,3.645395 -2.594502,3.479659 -0.136292,-0.113113 -0.362047,-0.161822 -0.501674,-0.108242 -0.175991,0.06753 -0.934609,-1.01384 -2.472975,-3.525113 l -2.219107,-3.622533 -9.185156,0 c -8.144483,0 -9.1731382,0.03132 -9.0790824,0.276425 0.058341,0.152033 1.8772414,5.654306 4.0420004,12.227273 2.16476,6.572966 3.971797,12.012662 4.015638,12.088213 0.04384,0.07555 7.166428,0.11646 15.827971,0.09091 L 47.934847,45.143821 51.43873,33.23473 z"
       id="path3149"
       inkscape:connector-curvature="0" />
    <path
       style="fill:#333333"
       d="m 23.115643,46.008367 -7.390891,-0.05041 -0.724102,-2.043429 c -0.398256,-1.123888 -1.31553,-3.88434 -2.038386,-6.13434 -0.722856,-2.25 -1.382422,-4.11665 -1.465702,-4.148111 -0.08328,-0.03146 -0.106352,-0.174642 -0.05127,-0.318182 0.05508,-0.143539 0.0047,-0.26098 -0.111853,-0.26098 -0.116601,0 -0.1693,-0.06909 -0.11711,-0.153537 0.05219,-0.08445 -0.597854,-2.31399 -1.4445424,-4.954545 C 7.5821945,21.116182 7.2194077,19.81277 7.4454291,19.586748 7.6457024,19.386475 26.093346,19.304294 26.606962,19.501388 c 0.147869,0.05674 1.165744,1.501624 2.261944,3.210847 1.910445,2.978816 2.623307,3.977045 2.840113,3.977045 0.055,0 0.978487,-1.370455 2.052198,-3.045455 1.073711,-1.675 2.173018,-3.315731 2.442905,-3.646069 l 0.490706,-0.600615 9.435652,5.43e-4 c 8.125493,4.68e-4 9.473351,0.03824 9.70716,0.272052 0.28626,0.28626 -0.191805,2.104008 -3.802,14.45634 -0.683976,2.340238 -1.205051,4.31734 -1.157943,4.393562 0.04711,0.07622 0.02029,0.166025 -0.05959,0.199567 -0.193105,0.08109 -0.967629,2.700213 -0.853236,2.885304 0.04916,0.07954 0.02403,0.172063 -0.05586,0.205605 -0.202829,0.08517 -0.964721,2.704918 -0.84364,2.900833 0.05444,0.08808 0.02417,0.160151 -0.06727,0.160151 -0.09144,0 -0.242496,0.265909 -0.335691,0.590909 l -0.169445,0.590909 -8.99322,0.0029 c -4.946273,0.0016 -12.319122,-0.01975 -16.384113,-0.04748 l 0,6e-6 z m 25.269156,-2.068031 c 0.214028,-0.711919 0.348919,-1.359475 0.299759,-1.439017 -0.04916,-0.07954 -0.02158,-0.172063 0.06128,-0.205605 0.143833,-0.05822 6.397059,-21.155558 6.397059,-21.582608 0,-0.150292 -2.490735,-0.205649 -9.252997,-0.205649 l -9.252994,0 -1.236864,1.954546 c -2.797933,4.421417 -3.328631,5.136364 -3.812671,5.136364 -0.479165,0 -1.207929,-1.013536 -3.822767,-5.316555 l -1.076253,-1.7711 -9.125633,-0.0016 c -5.846237,-10e-4 -9.1657302,0.06325 -9.2372113,0.178909 -0.1276174,0.206489 3.5172533,11.334915 3.7410633,11.422119 0.08074,0.03146 0.101741,0.174643 0.04666,0.318182 -0.05508,0.143539 -0.02711,0.260981 0.06216,0.260981 0.08927,0 0.164382,0.143181 0.166916,0.318181 0.0025,0.175 0.898667,2.997728 1.99141,6.272728 l 1.986804,5.954545 15.837569,0 15.837569,0 0.389138,-1.294394 0,0 z"
       id="path3151"
       inkscape:connector-curvature="0" />
    <path
       style="fill:#4d4d4d"
       d="M 22.659317,46.007537 15.72119,45.957717 15.181289,44.45986 C 14.884343,43.63604 14.023813,41.080188 13.269,38.780188 c -0.754814,-2.3 -1.473277,-4.427273 -1.596585,-4.727273 -0.123309,-0.3 -0.207489,-0.647727 -0.187069,-0.772727 0.02042,-0.125 -0.03087,-0.227273 -0.113968,-0.227273 -0.0831,0 -0.163005,-0.158077 -0.177558,-0.351281 C 11.17927,32.508429 10.470327,30.156156 9.6184005,27.474361 7.4235297,20.56509 7.2167621,19.815414 7.4434646,19.588712 c 0.2016879,-0.201688 18.6448984,-0.28633 19.1618934,-0.08794 0.146989,0.0564 1.204001,1.553712 2.348921,3.327349 2.019844,3.129019 2.659415,4.009199 2.796039,3.847927 0.03619,-0.04272 1.095952,-1.644918 2.35502,-3.560435 1.259067,-1.915516 2.375023,-3.535792 2.479905,-3.600612 0.104882,-0.06482 4.418489,-0.117612 9.585791,-0.117315 8.107238,4.67e-4 9.432473,0.03792 9.667756,0.2732 0.303264,0.303263 0.02056,1.399927 -3.260012,12.646094 -0.888311,3.045235 -1.643811,5.704325 -1.678886,5.909091 -0.03508,0.204765 -0.152491,0.587125 -0.260925,0.849692 -0.215368,0.521506 -0.617384,1.906662 -0.679368,2.340789 -0.02142,0.15 -0.09402,0.400431 -0.161347,0.556513 -0.311934,0.723184 -0.812024,2.609813 -0.727874,2.745969 0.05169,0.08364 0.01104,0.152064 -0.09033,0.152064 -0.10137,0 -0.238032,0.286363 -0.303692,0.636363 l -0.119382,0.636364 -9.479766,-0.04323 c -5.21387,-0.02378 -12.601921,-0.06565 -16.417891,-0.09305 l 0,0 z m 25.669591,-1.90917 c 0.17866,-0.625 0.336497,-1.26053 0.350748,-1.412288 0.01425,-0.151758 0.07338,-0.356303 0.1314,-0.454545 0.124594,-0.210971 0.730832,-2.239407 0.786974,-2.633167 0.02139,-0.15 0.126384,-0.487553 0.233326,-0.75012 0.23374,-0.573879 0.627007,-1.959946 0.665056,-2.343986 0.01504,-0.151758 0.07909,-0.359668 0.142351,-0.462022 0.262378,-0.424536 4.501635,-15.209914 4.405555,-15.365376 -0.06244,-0.101031 -3.797866,-0.169406 -9.254877,-0.169406 l -9.150176,0 -0.289298,0.441525 c -0.159113,0.242838 -0.311706,0.54936 -0.339093,0.68116 -0.02739,0.1318 -0.140831,0.321751 -0.252096,0.422112 -0.111266,0.100362 -0.988059,1.389294 -1.948428,2.864294 -2.250385,3.456296 -2.182792,3.445547 -4.002062,0.636364 -0.728565,-1.125 -1.727732,-2.720455 -2.220369,-3.545455 l -0.895703,-1.5 -9.001932,0.0028 c -4.951063,0.0015 -9.1020956,0.06642 -9.224518,0.144197 -0.1652906,0.105012 0.1958633,1.428695 1.4030381,5.142343 0.8940929,2.750512 1.7661279,5.324259 1.9378539,5.719439 0.171726,0.39518 0.293591,0.820782 0.27081,0.945782 -0.02278,0.125 0.04399,0.227273 0.148368,0.227273 0.104384,0 0.1801,0.06136 0.168258,0.136363 -0.01184,0.075 -0.005,0.177273 0.01515,0.227273 0.02018,0.05 0.05656,0.254545 0.08087,0.454545 0.0243,0.2 0.89604,2.920455 1.937196,6.045455 l 1.893012,5.681818 15.841877,0 15.841874,0 0.324838,-1.136363 0,0 z"
       id="path3153"
       inkscape:connector-curvature="0" />
    <path
       style="fill:#4d4d4d"
       d="m 22.279261,20.554129 c 0.775,-0.03408 2.043182,-0.03408 2.818182,0 0.775,0.03408 0.140909,0.06197 -1.409091,0.06197 -1.55,0 -2.184091,-0.02788 -1.409091,-0.06197 z"
       id="path3155"
       inkscape:connector-curvature="0" />
    <path
       style="fill:#4d4d4d"
       d=""
       id="path3157"
       inkscape:connector-curvature="0" />
    <path
       style="fill:#4d4d4d"
       d="m 21.506534,36.969968 c 0,-0.154381 0.143182,-0.281932 0.318182,-0.283448 0.232336,-0.002 0.587981,-0.620164 1.318182,-2.291152 0.55,-1.258619 1.02562,-2.356968 1.056934,-2.440775 0.03131,-0.08381 -0.276948,-0.177789 -0.685027,-0.208848 -1.292859,-0.0984 -0.906473,-0.41708 0.573543,-0.473045 1.652505,-0.06249 1.417308,-0.306049 2.981845,3.08791 0.674315,1.462795 1.18192,2.338588 1.386431,2.392069 0.177451,0.0464 0.322637,0.173849 0.322637,0.283211 0,0.126428 -0.50212,0.19884 -1.378788,0.19884 -1.021609,0 -1.35946,-0.05888 -1.304179,-0.227273 0.04103,-0.125 0.334216,-0.252911 0.651515,-0.284246 0.675089,-0.06667 0.661854,-0.02528 0.270505,-0.845949 l -0.306403,-0.642532 -1.657072,0 -1.657073,0 -0.218343,0.603818 c -0.296796,0.820774 -0.297081,0.820097 0.372565,0.884663 1.088825,0.104982 0.605484,0.420019 -0.727272,0.47403 -1.090199,0.04418 -1.318182,0.0049 -1.318182,-0.227273 z m 4.66626,-2.871601 c -0.136241,-0.325 -0.45809,-1 -0.71522,-1.5 l -0.46751,-0.909091 -0.488877,1.090909 c -0.941027,2.099864 -0.996761,1.909091 0.557742,1.909091 l 1.361576,0 -0.247711,-0.590909 z"
       id="path3159"
       inkscape:connector-curvature="0" />
    <path
       style="fill:#4d4d4d"
       d="m 29.367652,37.01172 c 0.04185,-0.127344 0.376575,-0.256929 0.743845,-0.287965 l 0.667764,-0.05643 0,-2.44357 0,-2.44357 -0.742424,0 c -0.512939,0 -0.719119,-0.07025 -0.667027,-0.227273 0.05255,-0.158404 0.663191,-0.242911 2.015152,-0.278879 1.644459,-0.04375 1.939754,-0.0092 1.939754,0.227273 0,0.209311 -0.204101,0.278879 -0.818182,0.278879 l -0.818182,0 0,2.454545 0,2.454546 1.727273,0 1.727273,0 0,-0.898361 c 0,-0.916054 0.273618,-1.348879 0.567472,-0.89766 0.08975,0.137811 0.141965,0.700566 0.116036,1.250566 l -0.04715,1 -3.243845,0.04972 c -2.562698,0.03928 -3.227869,0.0011 -3.167764,-0.181818 l 0,0 z"
       id="path3161"
       inkscape:connector-curvature="0" />
    <path
       style="fill:#4d4d4d"
       d="m 39.010115,37.146987 c -1.038192,-0.451331 -1.320307,-1.180013 -1.321083,-3.412257 -6.47e-4,-1.859176 -0.01916,-1.954545 -0.379468,-1.954545 -0.221869,0 -0.347678,-0.09415 -0.303691,-0.227273 0.04755,-0.143894 0.520028,-0.246996 1.287879,-0.281035 0.995937,-0.04415 1.212782,-0.0035 1.212782,0.227273 0,0.178558 -0.165746,0.281035 -0.454546,0.281035 l -0.454545,0 0.0025,1.863636 c 0.0014,1.025 0.05267,2.051004 0.114019,2.280009 0.255509,0.953834 2.116504,1.276242 2.891763,0.500983 0.421992,-0.421992 0.446281,-0.559872 0.446281,-2.533378 l 0,-2.087097 -0.460198,-0.05753 c -0.946842,-0.118369 -0.506417,-0.42263 0.687471,-0.47493 1.009008,-0.0442 1.227273,-0.0038 1.227273,0.227273 0,0.154569 -0.111315,0.281035 -0.247367,0.281035 -0.188886,0 -0.269128,0.493121 -0.339415,2.085856 -0.06809,1.542955 -0.173018,2.209433 -0.403139,2.560642 -0.596503,0.910378 -2.275774,1.255334 -3.506498,0.720304 l 0,0 z"
       id="path3163"
       inkscape:connector-curvature="0" />
  </g>
</svg>
