<?xml version="1.0" encoding="UTF-8" standalone="no"?>
<!-- Created with Inkscape (http://www.inkscape.org/) -->

<svg
   xmlns:dc="http://purl.org/dc/elements/1.1/"
   xmlns:cc="http://creativecommons.org/ns#"
   xmlns:rdf="http://www.w3.org/1999/02/22-rdf-syntax-ns#"
   xmlns:svg="http://www.w3.org/2000/svg"
   xmlns="http://www.w3.org/2000/svg"
   xmlns:sodipodi="http://sodipodi.sourceforge.net/DTD/sodipodi-0.dtd"
   xmlns:inkscape="http://www.inkscape.org/namespaces/inkscape"
   width="64px"
   height="64px"
   id="svg3726"
   version="1.1"
   inkscape:version="0.48.5 r10040"
   sodipodi:docname="box.svg"
   inkscape:export-filename="/home/mattia/beratfiles/programmazione di interfaccia/poeditorNew/icons/box.png"
   inkscape:export-xdpi="90"
   inkscape:export-ydpi="90">
  <defs
     id="defs3728" />
  <sodipodi:namedview
     id="base"
     pagecolor="#ffffff"
     bordercolor="#666666"
     borderopacity="1.0"
     inkscape:pageopacity="0.0"
     inkscape:pageshadow="2"
     inkscape:zoom="5.5"
     inkscape:cx="32"
     inkscape:cy="32"
     inkscape:current-layer="layer1"
     showgrid="false"
     inkscape:document-units="px"
     inkscape:grid-bbox="true"
     showguides="false"
     inkscape:window-width="1020"
     inkscape:window-height="561"
     inkscape:window-x="194"
     inkscape:window-y="59"
     inkscape:window-maximized="0">
    <inkscape:grid
       type="xygrid"
       id="grid3801" />
  </sodipodi:namedview>
  <metadata
     id="metadata3731">
    <rdf:RDF>
      <cc:Work
         rdf:about="">
        <dc:format>image/svg+xml</dc:format>
        <dc:type
           rdf:resource="http://purl.org/dc/dcmitype/StillImage" />
        <dc:title></dc:title>
      </cc:Work>
    </rdf:RDF>
  </metadata>
  <g
     id="layer1"
     inkscape:label="Layer 1"
     inkscape:groupmode="layer">
    <path
       style="fill:none;stroke:#000000;stroke-width:1px;stroke-linecap:butt;stroke-linejoin:miter;stroke-opacity:1"
       d="m 19,10.090909 6.545455,0"
       id="path3742-3"
       inkscape:connector-curvature="0" />
    <path
       style="fill:none;stroke:#000000;stroke-width:1px;stroke-linecap:butt;stroke-linejoin:miter;stroke-opacity:1"
       d="m 29.727273,10.090909 6.545455,0"
       id="path3742-1-0"
       inkscape:connector-curvature="0" />
    <path
       style="fill:none;stroke:#000000;stroke-width:1px;stroke-linecap:butt;stroke-linejoin:miter;stroke-opacity:1"
       d="m 40,9.9090918 6.545455,0"
       id="path3742-1-0-0"
       inkscape:connector-curvature="0" />
    <path
       style="fill:none;stroke:#000000;stroke-width:0.8740074px;stroke-linecap:butt;stroke-linejoin:miter;stroke-opacity:1"
       d="m 9.3636366,10.090909 5.0000004,0"
       id="path3742-12"
       inkscape:connector-curvature="0" />
    <path
       style="fill:none;stroke:#000000;stroke-width:0.8740074px;stroke-linecap:butt;stroke-linejoin:miter;stroke-opacity:1"
       d="m 9.3636366,10.090909 0,5"
       id="path3742-12-9"
       inkscape:connector-curvature="0" />
    <path
       style="fill:none;stroke:#000000;stroke-width:0.8740074px;stroke-linecap:butt;stroke-linejoin:miter;stroke-opacity:1"
       d="m 54.727273,10.090909 -5,0"
       id="path3742-12-7"
       inkscape:connector-curvature="0" />
    <path
       style="fill:none;stroke:#000000;stroke-width:0.8740074px;stroke-linecap:butt;stroke-linejoin:miter;stroke-opacity:1"
       d="m 54.727273,10.090909 0,5"
       id="path3742-12-9-3"
       inkscape:connector-curvature="0" />
    <path
       style="fill:none;stroke:#000000;stroke-width:1px;stroke-linecap:butt;stroke-linejoin:miter;stroke-opacity:1"
       d="m 19.181818,54.545454 6.545455,0"
       id="path3742-3-0"
       inkscape:connector-curvature="0" />
    <path
       style="fill:none;stroke:#000000;stroke-width:1px;stroke-linecap:butt;stroke-linejoin:miter;stroke-opacity:1"
       d="m 29.909091,54.545454 6.545455,0"
       id="path3742-1-0-6"
       inkscape:connector-curvature="0" />
    <path
       style="fill:none;stroke:#000000;stroke-width:1px;stroke-linecap:butt;stroke-linejoin:miter;stroke-opacity:1"
       d="m 40.181818,54.727271 6.545455,0"
       id="path3742-1-0-0-6"
       inkscape:connector-curvature="0" />
    <path
       style="fill:none;stroke:#000000;stroke-width:0.8740074px;stroke-linecap:butt;stroke-linejoin:miter;stroke-opacity:1"
       d="m 9.5454551,54.545454 4.9999999,0"
       id="path3742-12-2"
       inkscape:connector-curvature="0" />
    <path
       style="fill:none;stroke:#000000;stroke-width:0.8740074px;stroke-linecap:butt;stroke-linejoin:miter;stroke-opacity:1"
       d="m 9.5454551,54.545454 0,-5"
       id="path3742-12-9-0"
       inkscape:connector-curvature="0" />
    <path
       style="fill:none;stroke:#000000;stroke-width:0.8740074px;stroke-linecap:butt;stroke-linejoin:miter;stroke-opacity:1"
       d="m 54.909091,54.727272 -5,0"
       id="path3742-12-7-3"
       inkscape:connector-curvature="0" />
    <path
       style="fill:none;stroke:#000000;stroke-width:0.8740074px;stroke-linecap:butt;stroke-linejoin:miter;stroke-opacity:1"
       d="m 54.909091,54.727272 0,-5"
       id="path3742-12-9-3-8"
       inkscape:connector-curvature="0" />
    <path
       style="fill:none;stroke:#000000;stroke-width:1px;stroke-linecap:butt;stroke-linejoin:miter;stroke-opacity:1"
       d="m 9.4545467,45.636362 0,-6.545454"
       id="path3742-1-3-5"
       inkscape:connector-curvature="0" />
    <path
       style="fill:none;stroke:#000000;stroke-width:1px;stroke-linecap:butt;stroke-linejoin:miter;stroke-opacity:1"
       d="m 9.3636363,35.90909 0,-6.545455"
       id="path3742-3-0-8"
       inkscape:connector-curvature="0" />
    <path
       style="fill:none;stroke:#000000;stroke-width:1px;stroke-linecap:butt;stroke-linejoin:miter;stroke-opacity:1"
       d="m 9.3636363,25.545454 0,-6.545455"
       id="path3742-1-0-6-5"
       inkscape:connector-curvature="0" />
    <path
       style="fill:none;stroke:#000000;stroke-width:1px;stroke-linecap:butt;stroke-linejoin:miter;stroke-opacity:1"
       d="m 54.772728,45.136363 0,-6.545454"
       id="path3742-1-3-5-8"
       inkscape:connector-curvature="0" />
    <path
       style="fill:none;stroke:#000000;stroke-width:1px;stroke-linecap:butt;stroke-linejoin:miter;stroke-opacity:1"
       d="m 54.681817,35.409091 0,-6.545455"
       id="path3742-3-0-8-9"
       inkscape:connector-curvature="0" />
    <path
       style="fill:none;stroke:#000000;stroke-width:1px;stroke-linecap:butt;stroke-linejoin:miter;stroke-opacity:1"
       d="m 54.681817,25.045455 0,-6.545455"
       id="path3742-1-0-6-5-0"
       inkscape:connector-curvature="0" />
    <path
       style="fill:#4d4d4d"
       d="m 9.7064289,12.763637 c 0,-1.25 0.029049,-1.761364 0.064552,-1.136364 0.035504,0.625 0.035504,1.647727 0,2.272727 -0.035504,0.625 -0.064552,0.113637 -0.064552,-1.136363 z"
       id="path3958"
       inkscape:connector-curvature="0" />
    <path
       style="fill:#4d4d4d"
       d="m 8.9090909,22.309091 0,-3.181818 0.4545454,0 0.4545455,0 0,3.181818 0,3.181818 -0.4545455,0 -0.4545454,0 0,-3.181818 z"
       id="path3960"
       inkscape:connector-curvature="0" />
    <path
       style="fill:#4d4d4d"
       d="m 8.9090909,32.672727 0,-3.181818 0.4545454,0 0.4545455,0 0,3.181818 0,3.181819 -0.4545455,0 -0.4545454,0 0,-3.181819 z"
       id="path3962"
       inkscape:connector-curvature="0" />
    <path
       style="fill:#4d4d4d"
       d="m 9.090909,42.309091 c 0,-3.060606 0.013853,-3.181818 0.3636364,-3.181818 0.3497836,0 0.3636364,0.121212 0.3636364,3.181818 0,3.060606 -0.013853,3.181818 -0.3636364,3.181818 -0.3497835,0 -0.3636364,-0.121212 -0.3636364,-3.181818 z"
       id="path3964"
       inkscape:connector-curvature="0" />
    <path
       style="fill:#4d4d4d"
       d="m 9.8882471,51.854546 c 0,-1.25 0.029049,-1.761364 0.064552,-1.136364 0.035504,0.625 0.035504,1.647727 0,2.272727 -0.035504,0.625 -0.064552,0.113637 -0.064552,-1.136363 z"
       id="path3966"
       inkscape:connector-curvature="0" />
    <path
       style="fill:#4d4d4d"
       d="m 10.764773,54.992627 c 0.670625,-0.03488 1.816079,-0.03511 2.545454,-5.16e-4 0.729375,0.0346 0.180682,0.06314 -1.219318,0.06342 -1.4,2.84e-4 -1.996761,-0.02802 -1.326136,-0.06291 z"
       id="path3968"
       inkscape:connector-curvature="0" />
    <path
       style="fill:#4d4d4d"
       d="m 9.6363636,54.672727 c 0,-0.15 -0.081818,-0.272727 -0.1818182,-0.272727 -0.1118881,0 -0.1818182,-0.909091 -0.1818182,-2.363636 0,-1.979798 0.044289,-2.363637 0.2727273,-2.363637 0.2278788,0 0.2727273,0.373738 0.2727273,2.272728 l 0,2.272727 2.3636362,0 c 2.242424,0 2.363637,0.01865 2.363637,0.363636 0,0.345679 -0.121213,0.363637 -2.454546,0.363637 -2.060606,0 -2.4545454,-0.04377 -2.4545454,-0.272728 z"
       id="path3970"
       inkscape:connector-curvature="0" />
    <path
       style="fill:#4d4d4d"
       d="M 10.969939,54.800815 C 10.302511,54.768823 9.7654529,54.646452 9.6425501,54.498364 9.4426026,54.257442 9.3287379,50.101565 9.5169284,49.913375 c 0.047254,-0.04725 0.1448797,0.901996 0.2169463,2.109445 l 0.1310302,2.195362 0.7493661,0.0011 c 1.416336,0.0021 3.749365,0.234767 3.749365,0.37398 0,0.16839 -1.850162,0.281547 -3.393697,0.207562 z"
       id="path3972"
       inkscape:connector-curvature="0" />
    <path
       style="fill:#4d4d4d"
       d="m 9.6650717,12.036364 c 0,-0.25 0.041268,-0.352273 0.091707,-0.227273 0.050439,0.125 0.050439,0.329546 0,0.454546 -0.050439,0.125 -0.091707,0.02273 -0.091707,-0.227273 z"
       id="path3974"
       inkscape:connector-curvature="0" />
    <path
       style="fill:#4d4d4d"
       d="m 9.6718088,12.672727 c 0.00371,-0.3 0.044454,-0.400715 0.090553,-0.223812 0.046099,0.176903 0.043067,0.422358 -0.00674,0.545455 -0.049804,0.123096 -0.087521,-0.02164 -0.083816,-0.321643 z"
       id="path3976"
       inkscape:connector-curvature="0" />
    <path
       style="fill:#4d4d4d"
       d="m 9.090909,12.581818 c 0,-1.454545 0.06993,-2.363636 0.1818182,-2.363636 0.1,0 0.1818182,-0.122727 0.1818182,-0.2727272 0,-0.2289565 0.3939394,-0.2727275 2.4545456,-0.2727275 2.333333,0 2.454545,0.017957 2.454545,0.3636367 C 14.363636,10.381352 14.242424,10.4 12,10.4 l -2.3636364,0 0,2.272727 c 0,1.89899 -0.044849,2.272728 -0.2727273,2.272728 -0.2284382,0 -0.2727273,-0.383839 -0.2727273,-2.363637 z"
       id="path3980"
       inkscape:connector-curvature="0" />
    <path
       style="fill:#4d4d4d"
       d=""
       id="path3984"
       inkscape:connector-curvature="0" />
    <path
       style="fill:#4d4d4d"
       d="m 31.308985,10.628395 c 0.869942,-0.03326 2.342669,-0.03341 3.272728,-3.48e-4 0.930058,0.03307 0.218287,0.06028 -1.581713,0.06047 -1.8,1.91e-4 -2.560957,-0.02686 -1.691015,-0.06012 z"
       id="path3986"
       inkscape:connector-curvature="0" />
    <path
       style="fill:#4d4d4d"
       d=""
       id="path3990"
       inkscape:connector-curvature="0" />
    <path
       style="fill:#4d4d4d"
       d="m 19.272727,54.581818 c 0,-0.349783 0.121212,-0.363636 3.181819,-0.363636 3.060606,0 3.181818,0.01385 3.181818,0.363636 0,0.349784 -0.121212,0.363637 -3.181818,0.363637 -3.060607,0 -3.181819,-0.01385 -3.181819,-0.363637 z"
       id="path3992"
       inkscape:connector-curvature="0" />
    <path
       style="fill:#4d4d4d"
       d="m 20.763531,54.992031 c 0.869942,-0.03326 2.342669,-0.03341 3.272727,-3.47e-4 0.930058,0.03307 0.218288,0.06028 -1.581712,0.06047 -1.8,1.9e-4 -2.560957,-0.02686 -1.691015,-0.06012 z"
       id="path3994"
       inkscape:connector-curvature="0" />
    <path
       style="fill:#4d4d4d"
       d="m 31.490804,54.992031 c 0.869941,-0.03326 2.342669,-0.03341 3.272727,-3.47e-4 0.930058,0.03307 0.218287,0.06028 -1.581713,0.06047 -1.8,1.9e-4 -2.560956,-0.02686 -1.691014,-0.06012 z"
       id="path3996"
       inkscape:connector-curvature="0" />
    <path
       style="fill:#4d4d4d"
       d="m 35.411211,54.99868 c 0.226166,-0.04349 0.553438,-0.04184 0.727273,0.0037 0.173834,0.04551 -0.01121,0.08109 -0.411211,0.07907 -0.4,-0.002 -0.542228,-0.03925 -0.316062,-0.08274 z"
       id="path3998"
       inkscape:connector-curvature="0" />
    <path
       style="fill:#4d4d4d"
       d="m 30,54.581818 c 0,-0.349783 0.121212,-0.363636 3.181818,-0.363636 3.060606,0 3.181818,0.01385 3.181818,0.363636 0,0.349784 -0.121212,0.363637 -3.181818,0.363637 C 30.121212,54.945455 30,54.931605 30,54.581818 z"
       id="path4000"
       inkscape:connector-curvature="0" />
    <path
       style="fill:#4d4d4d"
       d="m 41.772727,55.173624 c 0.925,-0.033 2.438637,-0.033 3.363637,0 0.925,0.033 0.168182,0.06 -1.681818,0.06 -1.85,0 -2.606819,-0.027 -1.681819,-0.06 z"
       id="path4002"
       inkscape:connector-curvature="0" />
    <path
       style="fill:#4d4d4d"
       d="m 40.181818,54.763637 c 0,-0.350169 0.121212,-0.363637 3.272728,-0.363637 3.151515,0 3.272727,0.01347 3.272727,0.363637 0,0.350168 -0.121212,0.363636 -3.272727,0.363636 -3.151516,0 -3.272728,-0.01347 -3.272728,-0.363636 z"
       id="path4004"
       inkscape:connector-curvature="0" />
    <path
       style="fill:#4d4d4d"
       d="m 55.343949,52.218182 c 0,-1.35 0.02862,-1.902273 0.06361,-1.227273 0.03498,0.675 0.03498,1.779546 0,2.454546 -0.03498,0.675 -0.06361,0.122727 -0.06361,-1.227273 z"
       id="path4006"
       inkscape:connector-curvature="0" />
    <path
       style="fill:#4d4d4d"
       d="M 50,54.763637 C 50,54.419394 50.121212,54.4 52.272727,54.4 l 2.272728,0 0,-2.272727 c 0,-2.151515 0.01939,-2.272727 0.363636,-2.272727 0.344988,0 0.363636,0.121212 0.363636,2.363636 0,1.454545 -0.06993,2.363636 -0.181818,2.363636 -0.1,0 -0.181818,0.122728 -0.181818,0.272728 0,0.228956 -0.393939,0.272727 -2.454545,0.272727 C 50.121212,55.127273 50,55.109313 50,54.763637 z"
       id="path4008"
       inkscape:connector-curvature="0" />
    <path
       style="fill:#4d4d4d"
       d="m 54.181818,32.127273 0,-3.181818 0.454546,0 0.454545,0 0,3.181818 0,3.181818 -0.454545,0 -0.454546,0 0,-3.181818 z"
       id="path4010"
       inkscape:connector-curvature="0" />
    <path
       style="fill:#4d4d4d"
       d="m 54.181818,21.763637 0,-3.181819 0.454546,0 0.454545,0 0,3.181819 0,3.181818 -0.454545,0 -0.454546,0 0,-3.181818 z"
       id="path4012"
       inkscape:connector-curvature="0" />
    <path
       style="fill:#4d4d4d"
       d="m 54.363636,41.945455 0,-3.181818 0.454546,0 0.454545,0 0,3.181818 0,3.181818 -0.454545,0 -0.454546,0 0,-3.181818 z"
       id="path4014"
       inkscape:connector-curvature="0" />
    <path
       style="fill:#4d4d4d"
       d="m 54.363636,12.672727 0,-2.272727 -2.272727,0 c -2.151515,0 -2.272727,-0.01939 -2.272727,-0.363636 0,-0.3456794 0.121212,-0.3636367 2.454545,-0.3636367 2.060606,0 2.454546,0.043771 2.454546,0.2727275 0,0.1500002 0.08182,0.2727272 0.181818,0.2727272 0.111888,0 0.181818,0.909091 0.181818,2.363636 0,2.242425 -0.01865,2.363637 -0.363636,2.363637 -0.344243,0 -0.363637,-0.121212 -0.363637,-2.272728 z"
       id="path4016"
       inkscape:connector-curvature="0" />
    <path
       style="fill:#4d4d4d"
       d="m 40,9.9454548 0,-0.4545457 3.272727,0 3.272728,0 0,0.4545457 0,0.4545452 -3.272728,0 L 40,10.4 40,9.9454548 z"
       id="path4018"
       inkscape:connector-curvature="0" />
    <path
       style="fill:#4d4d4d"
       d="m 29.818182,10.127273 0,-0.4545457 3.181818,0 3.181818,0 0,0.4545457 0,0.454545 -3.181818,0 -3.181818,0 0,-0.454545 z"
       id="path4020"
       inkscape:connector-curvature="0" />
    <path
       style="fill:#4d4d4d"
       d="m 19.090909,10.127273 0,-0.4545457 3.181818,0 3.181819,0 0,0.4545457 0,0.454545 -3.181819,0 -3.181818,0 0,-0.454545 z"
       id="path4022"
       inkscape:connector-curvature="0" />
    <path
       style="fill:#4d4d4d"
       d=""
       id="path4028"
       inkscape:connector-curvature="0" />
    <path
       style="fill:#4d4d4d"
       d=""
       id="path4030"
       inkscape:connector-curvature="0" />
    <path
       style="fill:#4d4d4d"
       d="m 9.2795388,13.763637 c -0.085938,-1.927513 0.016588,-3.448215 0.2487012,-3.688812 0.1593241,-0.1651472 0.859225,-0.2342652 2.372193,-0.2342652 1.965527,0 2.47619,0.06161 2.264598,0.2731972 -0.04257,0.04257 -1.07893,0.135975 -2.30303,0.207575 l -2.2256374,0.130182 -0.021252,1.019698 c -0.011688,0.560833 -0.08103,1.551515 -0.1540933,2.201515 l -0.1328415,1.181819 -0.048638,-1.090909 z"
       id="path4032"
       inkscape:connector-curvature="0" />
  </g>
</svg>
