<?xml version="1.0" encoding="UTF-8" standalone="no"?>
<!-- Created with Inkscape (http://www.inkscape.org/) -->

<svg
   xmlns:dc="http://purl.org/dc/elements/1.1/"
   xmlns:cc="http://creativecommons.org/ns#"
   xmlns:rdf="http://www.w3.org/1999/02/22-rdf-syntax-ns#"
   xmlns:svg="http://www.w3.org/2000/svg"
   xmlns="http://www.w3.org/2000/svg"
   xmlns:sodipodi="http://sodipodi.sourceforge.net/DTD/sodipodi-0.dtd"
   xmlns:inkscape="http://www.inkscape.org/namespaces/inkscape"
   width="64px"
   height="64px"
   id="svg3426"
   version="1.1"
   inkscape:version="0.48.5 r10040"
   sodipodi:docname="registro.svg"
   inkscape:export-filename="/home/mattia/beratfiles/programmazione di interfaccia/poeditorNew/icons/registro2.png"
   inkscape:export-xdpi="90"
   inkscape:export-ydpi="90">
  <defs
     id="defs3428" />
  <sodipodi:namedview
     id="base"
     pagecolor="#ffffff"
     bordercolor="#666666"
     borderopacity="1.0"
     inkscape:pageopacity="0.0"
     inkscape:pageshadow="2"
     inkscape:zoom="5.5"
     inkscape:cx="32"
     inkscape:cy="38.401634"
     inkscape:current-layer="layer1"
     showgrid="true"
     inkscape:document-units="px"
     inkscape:grid-bbox="true"
     inkscape:window-width="1366"
     inkscape:window-height="720"
     inkscape:window-x="0"
     inkscape:window-y="0"
     inkscape:window-maximized="1" />
  <metadata
     id="metadata3431">
    <rdf:RDF>
      <cc:Work
         rdf:about="">
        <dc:format>image/svg+xml</dc:format>
        <dc:type
           rdf:resource="http://purl.org/dc/dcmitype/StillImage" />
        <dc:title></dc:title>
      </cc:Work>
    </rdf:RDF>
  </metadata>
  <g
     id="layer1"
     inkscape:label="Layer 1"
     inkscape:groupmode="layer">
    <path
       style="fill:none;stroke:#000000;stroke-width:1.87427211px;stroke-linecap:butt;stroke-linejoin:miter;stroke-opacity:1"
       d="m 6.0638722,21.272726 51.7392638,0"
       id="path3434"
       inkscape:connector-curvature="0" />
    <path
       style="fill:none;stroke:#000000;stroke-width:1.8807323px;stroke-linecap:butt;stroke-linejoin:miter;stroke-opacity:1"
       d="M 5.7667317,44 57.863275,44"
       id="path3434-9"
       inkscape:connector-curvature="0" />
    <path
       style="fill:none;stroke:#000000;stroke-width:1.58697832px;stroke-linecap:butt;stroke-linejoin:miter;stroke-opacity:1"
       d="m 6.5454543,20.494005 0,23.548991"
       id="path3434-3"
       inkscape:connector-curvature="0" />
    <path
       style="fill:none;stroke:#000000;stroke-width:1.58697832px;stroke-linecap:butt;stroke-linejoin:miter;stroke-opacity:1"
       d="m 57.090909,20.952777 0,23.548991"
       id="path3434-3-3"
       inkscape:connector-curvature="0" />
    <path
       style="fill:#4d4d4d"
       d="m 5.8181818,32.690547 c 0,-10.839864 0.029342,-12.082716 0.2875977,-12.181818 0.1581788,-0.0607 11.8077275,-0.110361 25.8878855,-0.110361 l 25.600288,0 0.109631,0.40909 c 0.0603,0.225 0.110751,5.706819 0.112116,12.181819 l 0.0025,11.772727 -26,0 -26.0000002,0 0,-12.071457 z m 50.5454542,-0.110361 0,-10.545455 -24.545454,0 -24.5454547,0 0,10.545455 0,10.545454 24.5454547,0 24.545454,0 0,-10.545454 z"
       id="path3541"
       inkscape:connector-curvature="0" />
    <text
       xml:space="preserve"
       style="font-size:25px;font-style:normal;font-variant:normal;font-weight:normal;font-stretch:normal;text-align:start;line-height:100%;letter-spacing:0px;word-spacing:0px;writing-mode:lr-tb;text-anchor:start;fill:#4d4d4d;fill-opacity:1;stroke:none;font-family:Courier 10 Pitch;-inkscape-font-specification:Courier 10 Pitch"
       x="14.727273"
       y="37.272724"
       id="text3564"
       sodipodi:linespacing="100%"><tspan
         sodipodi:role="line"
         id="tspan3566"
         x="14.727273"
         y="37.272724"
         style="font-size:16px;font-style:normal;font-variant:normal;font-weight:normal;font-stretch:normal;text-align:start;line-height:100%;writing-mode:lr-tb;text-anchor:start;font-family:Courier 10 Pitch;-inkscape-font-specification:Courier 10 Pitch">RDY</tspan></text>
    <path
       style="fill:#4d4d4d;stroke:#000000;stroke-width:1.58697832000000005px;stroke-linecap:butt;stroke-linejoin:miter;stroke-opacity:1;fill-opacity:1"
       d="M 50,20.770959 50,44.31995"
       id="path3434-3-3-4"
       inkscape:connector-curvature="0" />
    <path
       style="fill:#4d4d4d;fill-opacity:1"
       d="m 49.345455,32.507457 0,-11.636364 0.636363,0 c 0.585528,0 0.636483,0.04357 0.637854,0.545455 8.2e-4,0.3 0.0015,5.331818 0.0015,11.181818 0,5.85 -6.71e-4,10.840909 -0.0015,11.090909 -0.0013,0.397984 -0.08067,0.454546 -0.637854,0.454546 l -0.636363,0 0,-11.636364 z"
       id="path3019"
       inkscape:connector-curvature="0" />
    <path
       style="fill:#4d4d4d;fill-opacity:1"
       d="m 50.660364,43.598366 c 0,-0.35 0.03742,-0.493182 0.08315,-0.318182 0.04573,0.175 0.04573,0.461364 0,0.636364 -0.04573,0.175 -0.08315,0.03182 -0.08315,-0.318182 z"
       id="path3021"
       inkscape:connector-curvature="0" />
    <path
       style="fill:#4d4d4d;fill-opacity:1"
       d="M 5.8521384,33.607769 C 5.8808145,27.462941 5.963758,22.022032 6.0364574,21.51686 l 0.1321807,-0.918494 25.6579469,-0.04608 25.65795,-0.04608 0.109794,0.409717 c 0.06039,0.225343 0.110915,5.66598 0.11228,12.090304 l 0.0025,11.680588 -25.954546,0.04668 L 5.8,44.780184 5.8521384,33.607769 z M 50.8,43.780184 l 0,-0.545454 2.818182,0 2.818182,0 0,-10.636364 0,-10.636364 -2.818182,0 -2.818182,0 0,-0.636363 c 0,-0.632997 -0.0043,-0.636364 -0.818182,-0.636364 -0.813853,0 -0.818182,0.0034 -0.818182,0.636364 l 0,0.636363 -21,0 -20.9999996,0 0,10.636364 0,10.636364 20.9999996,0 21,0 0,0.545454 c 0,0.525253 0.0303,0.545455 0.818182,0.545455 0.787878,0 0.818182,-0.0202 0.818182,-0.545455 z"
       id="path3023"
       inkscape:connector-curvature="0" />
    <path
       style="fill:#4d4d4d;fill-opacity:1"
       d=""
       id="path3025"
       inkscape:connector-curvature="0" />
    <path
       style="fill:#4d4d4d;fill-opacity:1"
       d="m 5.8401432,34.143821 c 0.022079,-5.85 0.090787,-11.311364 0.1526853,-12.136364 l 0.1125421,-1.5 25.6914984,0 c 23.259562,0 25.701946,0.02722 25.80186,0.287598 0.0607,0.158178 0.110362,5.598534 0.110362,12.089678 l 0,11.802082 -25.954546,0.04668 L 5.8,44.780184 5.8401432,34.143821 z M 50.8,43.780184 l 0,-0.545454 2.818182,0 2.818182,0 0,-10.636364 0,-10.636364 -2.818182,0 -2.818182,0 0,-0.636363 c 0,-0.632997 -0.0043,-0.636364 -0.818182,-0.636364 -0.813853,0 -0.818182,0.0034 -0.818182,0.636364 l 0,0.636363 -21,0 -20.9999996,0 0,10.636364 0,10.636364 20.9999996,0 21,0 0,0.545454 c 0,0.525253 0.0303,0.545455 0.818182,0.545455 0.787878,0 0.818182,-0.0202 0.818182,-0.545455 z"
       id="path3027"
       inkscape:connector-curvature="0" />
  </g>
</svg>
